<?xml version="1.0" encoding="UTF-8"?>
<svg xmlns="http://www.w3.org/2000/svg" xmlns:xlink="http://www.w3.org/1999/xlink" width="20pt" height="20pt" viewBox="0 0 20 20" version="1.1">
<g id="surface1">
<path style=" stroke:none;fill-rule:nonzero;fill:rgb(22%,24%,27%);fill-opacity:1;" d="M 15.964844 3.789062 L 15.960938 3.789062 C 15.957031 3.785156 15.949219 3.78125 15.941406 3.777344 C 15.957031 3.554688 15.859375 3.335938 15.660156 3.210938 C 14.703125 2.597656 12.847656 1.699219 11.007812 2.433594 L 11.007812 1.039062 C 11.007812 0.464844 10.59375 0 10.085938 0 L 9.257812 0 C 8.746094 0 8.332031 0.464844 8.332031 1.039062 L 8.332031 2.566406 C 7.503906 2.421875 5.699219 2.273438 3.964844 3.308594 C 3.699219 3.464844 3.59375 3.777344 3.699219 4.066406 C 3.710938 4.09375 3.730469 4.117188 3.746094 4.144531 C 3.707031 4.152344 3.667969 4.164062 3.628906 4.171875 C 3.542969 4.195312 3.457031 4.238281 3.386719 4.300781 C 1.332031 6.007812 0.15625 8.441406 0.15625 10.976562 C 0.15625 15.953125 4.578125 20 10.011719 20 C 15.441406 20 19.863281 15.953125 19.863281 10.976562 C 19.863281 8.132812 18.441406 5.511719 15.964844 3.789062 Z M 8.332031 3.328125 C 8.511719 3.363281 8.703125 3.320312 8.847656 3.199219 C 8.992188 3.082031 9.078125 2.902344 9.078125 2.714844 L 9.078125 1.039062 C 9.078125 0.875 9.171875 0.746094 9.257812 0.746094 L 10.085938 0.746094 C 10.167969 0.746094 10.265625 0.875 10.265625 1.039062 L 10.265625 2.621094 C 10.265625 2.832031 10.371094 3.027344 10.550781 3.144531 C 10.726562 3.257812 10.953125 3.277344 11.144531 3.1875 C 12.507812 2.5625 13.949219 3.09375 14.871094 3.605469 C 14 3.59375 13.292969 3.664062 12.753906 3.796875 C 12.507812 3.855469 12.324219 4.054688 12.289062 4.304688 C 12.25 4.558594 12.371094 4.808594 12.59375 4.941406 C 13.136719 5.261719 13.488281 5.617188 13.726562 5.96875 C 13.894531 6.222656 14.003906 6.472656 14.070312 6.699219 C 13.253906 6.03125 12.335938 5.785156 11.710938 5.699219 C 11.5 5.667969 11.324219 5.65625 11.191406 5.652344 C 11.019531 5.648438 10.859375 5.710938 10.734375 5.832031 C 10.613281 5.949219 10.542969 6.117188 10.546875 6.289062 C 10.578125 8.203125 9.914062 9.488281 9.53125 10.066406 C 9.164062 9.289062 9.050781 7.617188 9.070312 6.242188 C 9.078125 5.921875 8.839844 5.652344 8.519531 5.613281 C 8.425781 5.601562 8.328125 5.59375 8.230469 5.59375 C 8.210938 5.59375 8.191406 5.597656 8.175781 5.597656 C 8.125 5.597656 8.074219 5.605469 8.023438 5.609375 C 7.945312 5.617188 7.867188 5.621094 7.792969 5.636719 C 7.742188 5.644531 7.691406 5.65625 7.640625 5.664062 C 7.5625 5.683594 7.484375 5.703125 7.40625 5.726562 C 7.355469 5.738281 7.308594 5.753906 7.261719 5.769531 C 7.179688 5.796875 7.097656 5.828125 7.015625 5.859375 C 6.972656 5.875 6.925781 5.894531 6.882812 5.914062 C 6.800781 5.949219 6.71875 5.988281 6.636719 6.03125 C 6.59375 6.050781 6.550781 6.070312 6.507812 6.09375 C 6.425781 6.136719 6.34375 6.183594 6.261719 6.230469 C 6.222656 6.253906 6.183594 6.273438 6.144531 6.296875 C 6.058594 6.351562 5.972656 6.40625 5.886719 6.464844 C 5.855469 6.484375 5.828125 6.5 5.800781 6.519531 C 5.6875 6.59375 5.578125 6.671875 5.472656 6.75 C 5.605469 6.511719 5.746094 6.292969 5.890625 6.101562 C 5.898438 6.089844 5.90625 6.078125 5.914062 6.066406 C 6.066406 5.867188 6.222656 5.691406 6.371094 5.539062 C 6.375 5.539062 6.375 5.539062 6.375 5.539062 C 6.574219 5.335938 6.761719 5.179688 6.925781 5.054688 C 6.953125 5.035156 6.976562 5.015625 7 5 C 7.011719 4.992188 7.023438 4.984375 7.035156 4.972656 C 7.082031 4.941406 7.128906 4.910156 7.167969 4.882812 C 7.363281 4.757812 7.472656 4.53125 7.445312 4.300781 C 7.421875 4.066406 7.273438 3.867188 7.054688 3.78125 C 7.035156 3.773438 7.011719 3.769531 6.992188 3.765625 C 6.910156 3.734375 6.824219 3.710938 6.730469 3.6875 C 6.675781 3.671875 6.617188 3.660156 6.554688 3.648438 C 6.546875 3.644531 6.539062 3.644531 6.53125 3.640625 C 6.527344 3.640625 6.519531 3.640625 6.515625 3.640625 C 6.089844 3.566406 5.589844 3.554688 5.003906 3.617188 C 6.410156 3.035156 7.761719 3.207031 8.332031 3.328125 Z M 10.007812 19.253906 C 4.988281 19.253906 0.902344 15.542969 0.902344 10.976562 C 0.902344 8.671875 1.972656 6.449219 3.84375 4.886719 C 4.648438 4.671875 5.511719 4.5 6.386719 4.378906 C 6.417969 4.382812 6.449219 4.386719 6.480469 4.390625 C 6.503906 4.394531 6.527344 4.402344 6.546875 4.40625 C 6.515625 4.429688 6.476562 4.460938 6.441406 4.488281 C 6.402344 4.515625 6.367188 4.542969 6.328125 4.578125 C 6.289062 4.605469 6.253906 4.640625 6.21875 4.671875 C 6.171875 4.710938 6.128906 4.746094 6.082031 4.785156 C 6.039062 4.828125 5.992188 4.871094 5.945312 4.917969 C 5.90625 4.957031 5.867188 4.992188 5.824219 5.035156 C 5.75 5.113281 5.671875 5.195312 5.597656 5.285156 C 5.582031 5.296875 5.570312 5.308594 5.558594 5.324219 C 5.203125 5.738281 4.84375 6.269531 4.554688 6.929688 C 4.4375 7.199219 4.515625 7.496094 4.746094 7.671875 C 4.980469 7.847656 5.296875 7.839844 5.523438 7.65625 C 6.160156 7.132812 7.351562 6.277344 8.324219 6.339844 C 8.316406 7.390625 8.371094 9.664062 8.996094 10.632812 C 9.105469 10.808594 9.296875 10.914062 9.503906 10.921875 L 9.519531 10.921875 C 9.71875 10.921875 9.90625 10.828125 10.027344 10.664062 C 10.410156 10.132812 11.296875 8.667969 11.292969 6.402344 C 11.839844 6.441406 12.945312 6.621094 13.824219 7.480469 C 14.019531 7.667969 14.296875 7.714844 14.535156 7.59375 C 14.777344 7.472656 14.910156 7.222656 14.878906 6.953125 C 14.855469 6.785156 14.816406 6.597656 14.757812 6.402344 C 14.753906 6.394531 14.753906 6.386719 14.75 6.378906 C 14.691406 6.199219 14.609375 6.011719 14.507812 5.820312 C 14.492188 5.792969 14.484375 5.769531 14.46875 5.742188 C 14.421875 5.660156 14.363281 5.578125 14.308594 5.5 C 14.289062 5.46875 14.273438 5.441406 14.25 5.414062 C 14.203125 5.347656 14.144531 5.285156 14.089844 5.21875 C 14.050781 5.175781 14.019531 5.128906 13.976562 5.085938 C 13.929688 5.035156 13.867188 4.984375 13.816406 4.933594 C 13.757812 4.878906 13.703125 4.820312 13.636719 4.765625 C 13.582031 4.71875 13.511719 4.675781 13.453125 4.628906 C 13.378906 4.570312 13.308594 4.515625 13.226562 4.457031 C 13.414062 4.425781 13.644531 4.398438 13.929688 4.378906 C 13.941406 4.375 13.953125 4.375 13.964844 4.375 C 14.019531 4.371094 14.078125 4.367188 14.136719 4.363281 C 14.167969 4.363281 14.203125 4.363281 14.234375 4.359375 C 14.28125 4.359375 14.328125 4.355469 14.375 4.355469 C 14.433594 4.351562 14.496094 4.351562 14.558594 4.351562 C 14.585938 4.351562 14.613281 4.351562 14.644531 4.351562 C 14.757812 4.347656 14.878906 4.351562 15.003906 4.351562 L 15.136719 4.363281 C 15.246094 4.378906 15.359375 4.390625 15.46875 4.40625 L 15.5625 4.414062 C 17.820312 5.996094 19.117188 8.386719 19.117188 10.976562 C 19.117188 15.542969 15.03125 19.253906 10.007812 19.253906 Z M 10.007812 19.253906 "/>
<path style=" stroke:none;fill-rule:nonzero;fill:rgb(22%,24%,27%);fill-opacity:1;" d="M 2.414062 11.441406 C 2.382812 11.238281 2.199219 11.09375 1.992188 11.128906 C 1.789062 11.15625 1.644531 11.347656 1.675781 11.550781 C 1.757812 12.105469 1.941406 12.625 2.21875 13.09375 C 2.289062 13.210938 2.414062 13.277344 2.539062 13.277344 C 2.605469 13.277344 2.667969 13.261719 2.730469 13.226562 C 2.90625 13.121094 2.964844 12.890625 2.859375 12.714844 C 2.632812 12.335938 2.480469 11.894531 2.414062 11.441406 Z M 2.414062 11.441406 "/>
<path style=" stroke:none;fill-rule:nonzero;fill:rgb(22%,24%,27%);fill-opacity:1;" d="M 2.066406 10.3125 C 2.074219 10.3125 2.082031 10.3125 2.089844 10.3125 C 2.285156 10.3125 2.449219 10.164062 2.460938 9.964844 C 2.492188 9.542969 2.578125 9.128906 2.722656 8.742188 C 2.792969 8.546875 2.691406 8.335938 2.5 8.265625 C 2.304688 8.195312 2.089844 8.292969 2.019531 8.484375 C 1.855469 8.941406 1.753906 9.421875 1.71875 9.914062 C 1.707031 10.121094 1.859375 10.296875 2.066406 10.3125 Z M 2.066406 10.3125 "/>
</g>
</svg>
