<?xml version="1.0" encoding="UTF-8"?>
<svg xmlns="http://www.w3.org/2000/svg" xmlns:xlink="http://www.w3.org/1999/xlink" width="25pt" height="25pt" viewBox="0 0 25 25" version="1.1">
<g id="surface1">
<path style=" stroke:none;fill-rule:nonzero;fill:rgb(0%,0%,0%);fill-opacity:1;" d="M 24.34375 12.171875 C 24.34375 5.449219 18.898438 0 12.171875 0 C 5.449219 0 0 5.449219 0 12.171875 C 0 18.898438 5.449219 24.34375 12.171875 24.34375 C 12.242188 24.34375 12.3125 24.34375 12.386719 24.339844 L 12.386719 14.867188 L 9.769531 14.867188 L 9.769531 11.820312 L 12.386719 11.820312 L 12.386719 9.574219 C 12.386719 6.972656 13.976562 5.554688 16.292969 5.554688 C 17.40625 5.554688 18.363281 5.640625 18.640625 5.679688 L 18.640625 8.398438 L 17.039062 8.398438 C 15.78125 8.398438 15.539062 9 15.539062 9.875 L 15.539062 11.816406 L 18.554688 11.816406 L 18.160156 14.863281 L 15.539062 14.863281 L 15.539062 23.871094 C 20.625 22.417969 24.34375 17.730469 24.34375 12.171875 Z M 24.34375 12.171875 "/>
</g>
</svg>
