<?xml version="1.0" encoding="UTF-8"?>
<svg xmlns="http://www.w3.org/2000/svg" xmlns:xlink="http://www.w3.org/1999/xlink" width="25pt" height="25pt" viewBox="0 0 25 25" version="1.1">
<g id="surface1">
<path style=" stroke:none;fill-rule:nonzero;fill:rgb(21.960784%,23.921569%,27.058824%);fill-opacity:1;" d="M 24.964844 7.347656 C 24.90625 6.019531 24.691406 5.109375 24.382812 4.316406 C 24.066406 3.476562 23.578125 2.726562 22.9375 2.101562 C 22.3125 1.464844 21.558594 0.972656 20.726562 0.660156 C 19.929688 0.351562 19.023438 0.136719 17.695312 0.078125 C 16.359375 0.015625 15.933594 0 12.539062 0 C 9.148438 0 8.726562 0.015625 7.390625 0.0742188 C 6.0625 0.132812 5.152344 0.347656 4.359375 0.65625 C 3.519531 0.972656 2.769531 1.460938 2.144531 2.101562 C 1.507812 2.726562 1.015625 3.480469 0.703125 4.3125 C 0.394531 5.109375 0.179688 6.015625 0.121094 7.34375 C 0.0585938 8.679688 0.0429688 9.105469 0.0429688 12.496094 C 0.0429688 15.890625 0.0585938 16.3125 0.117188 17.648438 C 0.175781 18.976562 0.390625 19.886719 0.699219 20.679688 C 1.015625 21.519531 1.507812 22.269531 2.144531 22.894531 C 2.769531 23.53125 3.523438 24.023438 4.355469 24.335938 C 5.152344 24.644531 6.058594 24.859375 7.386719 24.917969 C 8.71875 24.976562 9.144531 24.992188 12.539062 24.992188 C 15.929688 24.992188 16.351562 24.976562 17.6875 24.917969 C 19.015625 24.859375 19.925781 24.644531 20.71875 24.335938 C 22.398438 23.6875 23.726562 22.359375 24.375 20.679688 C 24.683594 19.882812 24.898438 18.976562 24.957031 17.648438 C 25.015625 16.3125 25.03125 15.890625 25.03125 12.496094 C 25.03125 9.105469 25.023438 8.679688 24.964844 7.347656 Z M 22.714844 17.546875 C 22.660156 18.769531 22.457031 19.429688 22.285156 19.867188 C 21.867188 20.957031 21 21.820312 19.914062 22.242188 C 19.472656 22.414062 18.808594 22.617188 17.59375 22.671875 C 16.273438 22.730469 15.878906 22.742188 12.546875 22.742188 C 9.214844 22.742188 8.8125 22.730469 7.5 22.671875 C 6.28125 22.617188 5.621094 22.414062 5.179688 22.242188 C 4.640625 22.039062 4.144531 21.722656 3.746094 21.308594 C 3.328125 20.902344 3.011719 20.414062 2.8125 19.875 C 2.640625 19.433594 2.4375 18.769531 2.382812 17.554688 C 2.324219 16.234375 2.308594 15.839844 2.308594 12.503906 C 2.308594 9.175781 2.324219 8.773438 2.382812 7.460938 C 2.4375 6.242188 2.640625 5.582031 2.8125 5.140625 C 3.011719 4.601562 3.328125 4.105469 3.75 3.707031 C 4.15625 3.289062 4.644531 2.972656 5.1875 2.773438 C 5.625 2.601562 6.289062 2.398438 7.503906 2.34375 C 8.824219 2.285156 9.21875 2.269531 12.546875 2.269531 C 15.890625 2.269531 16.285156 2.285156 17.597656 2.34375 C 18.820312 2.398438 19.476562 2.601562 19.917969 2.773438 C 20.460938 2.972656 20.953125 3.289062 21.351562 3.707031 C 21.765625 4.109375 22.085938 4.601562 22.285156 5.140625 C 22.457031 5.582031 22.660156 6.246094 22.714844 7.460938 C 22.773438 8.78125 22.789062 9.175781 22.789062 12.503906 C 22.789062 15.839844 22.773438 16.230469 22.714844 17.546875 Z M 22.714844 17.546875 "/>
<path style=" stroke:none;fill-rule:nonzero;fill:rgb(21.960784%,23.921569%,27.058824%);fill-opacity:1;" d="M 12.539062 6.078125 C 9 6.078125 6.125 8.953125 6.125 12.496094 C 6.125 16.039062 9 18.914062 12.539062 18.914062 C 16.085938 18.914062 18.960938 16.039062 18.960938 12.496094 C 18.960938 8.953125 16.085938 6.078125 12.539062 6.078125 Z M 12.539062 16.660156 C 10.242188 16.660156 8.378906 14.796875 8.378906 12.496094 C 8.378906 10.199219 10.242188 8.335938 12.539062 8.335938 C 14.839844 8.335938 16.703125 10.199219 16.703125 12.496094 C 16.703125 14.796875 14.839844 16.660156 12.539062 16.660156 Z M 12.539062 16.660156 "/>
<path style=" stroke:none;fill-rule:nonzero;fill:rgb(21.960784%,23.921569%,27.058824%);fill-opacity:1;" d="M 20.710938 5.824219 C 20.710938 6.648438 20.042969 7.324219 19.214844 7.324219 C 18.390625 7.324219 17.714844 6.648438 17.714844 5.824219 C 17.714844 4.996094 18.390625 4.328125 19.214844 4.328125 C 20.042969 4.328125 20.710938 4.996094 20.710938 5.824219 Z M 20.710938 5.824219 "/>
</g>
</svg>
