<?xml version="1.0" encoding="UTF-8"?>
<svg xmlns="http://www.w3.org/2000/svg" xmlns:xlink="http://www.w3.org/1999/xlink" width="25pt" height="25pt" viewBox="0 0 25 25" version="1.1">
<g id="surface1">
<path style=" stroke:none;fill-rule:nonzero;fill:rgb(100%,100%,100%);fill-opacity:1;" d="M 14.503906 12.171875 C 14.503906 13.460938 13.460938 14.503906 12.171875 14.503906 C 10.886719 14.503906 9.84375 13.460938 9.84375 12.171875 C 9.84375 10.886719 10.886719 9.84375 12.171875 9.84375 C 13.460938 9.84375 14.503906 10.886719 14.503906 12.171875 Z M 14.503906 12.171875 "/>
<path style=" stroke:none;fill-rule:nonzero;fill:rgb(100%,100%,100%);fill-opacity:1;" d="M 17.625 8.054688 C 17.511719 7.75 17.332031 7.472656 17.097656 7.246094 C 16.875 7.015625 16.597656 6.835938 16.292969 6.722656 C 16.050781 6.628906 15.679688 6.515625 15 6.484375 C 14.257812 6.449219 14.042969 6.441406 12.171875 6.441406 C 10.304688 6.441406 10.082031 6.449219 9.347656 6.484375 C 8.667969 6.515625 8.296875 6.628906 8.054688 6.722656 C 7.75 6.835938 7.472656 7.015625 7.246094 7.246094 C 7.015625 7.472656 6.835938 7.75 6.722656 8.054688 C 6.628906 8.296875 6.515625 8.667969 6.484375 9.347656 C 6.449219 10.085938 6.441406 10.304688 6.441406 12.171875 C 6.441406 14.042969 6.449219 14.261719 6.484375 15 C 6.515625 15.679688 6.628906 16.050781 6.722656 16.292969 C 6.835938 16.597656 7.015625 16.875 7.246094 17.097656 C 7.472656 17.332031 7.75 17.511719 8.054688 17.625 C 8.296875 17.714844 8.667969 17.832031 9.347656 17.863281 C 10.082031 17.898438 10.304688 17.90625 12.171875 17.90625 C 14.042969 17.90625 14.261719 17.898438 15 17.863281 C 15.679688 17.832031 16.050781 17.714844 16.292969 17.625 C 16.90625 17.386719 17.386719 16.90625 17.625 16.292969 C 17.714844 16.050781 17.832031 15.679688 17.863281 15 C 17.894531 14.261719 17.90625 14.042969 17.90625 12.171875 C 17.90625 10.304688 17.894531 10.085938 17.863281 9.347656 C 17.832031 8.667969 17.714844 8.296875 17.625 8.054688 Z M 12.171875 15.761719 C 10.191406 15.761719 8.582031 14.152344 8.582031 12.171875 C 8.582031 10.191406 10.191406 8.582031 12.171875 8.582031 C 14.152344 8.582031 15.761719 10.191406 15.761719 12.171875 C 15.761719 14.152344 14.152344 15.761719 12.171875 15.761719 Z M 15.90625 9.28125 C 15.441406 9.28125 15.0625 8.90625 15.0625 8.441406 C 15.0625 7.980469 15.441406 7.601562 15.90625 7.601562 C 16.367188 7.601562 16.742188 7.980469 16.742188 8.441406 C 16.742188 8.90625 16.367188 9.28125 15.90625 9.28125 Z M 15.90625 9.28125 "/>
<path style=" stroke:none;fill-rule:nonzero;fill:rgb(100%,100%,100%);fill-opacity:1;" d="M 12.171875 0 C 5.453125 0 0 5.453125 0 12.171875 C 0 18.894531 5.453125 24.347656 12.171875 24.347656 C 18.894531 24.347656 24.347656 18.894531 24.347656 12.171875 C 24.347656 5.453125 18.894531 0 12.171875 0 Z M 19.125 15.054688 C 19.089844 15.796875 18.96875 16.304688 18.796875 16.75 C 18.433594 17.695312 17.695312 18.433594 16.75 18.796875 C 16.304688 18.96875 15.796875 19.089844 15.054688 19.125 C 14.3125 19.152344 14.074219 19.160156 12.171875 19.160156 C 10.273438 19.160156 10.035156 19.152344 9.289062 19.125 C 8.546875 19.089844 8.039062 18.96875 7.59375 18.796875 C 7.128906 18.621094 6.703125 18.347656 6.355469 17.988281 C 6 17.640625 5.722656 17.21875 5.550781 16.75 C 5.378906 16.304688 5.257812 15.796875 5.222656 15.054688 C 5.191406 14.3125 5.179688 14.074219 5.179688 12.171875 C 5.179688 10.273438 5.191406 10.035156 5.222656 9.289062 C 5.257812 8.546875 5.378906 8.039062 5.550781 7.59375 C 5.722656 7.128906 6 6.703125 6.355469 6.355469 C 6.703125 6 7.128906 5.722656 7.59375 5.550781 C 8.039062 5.378906 8.546875 5.257812 9.289062 5.222656 C 10.035156 5.191406 10.273438 5.179688 12.171875 5.179688 C 14.074219 5.179688 14.3125 5.191406 15.054688 5.222656 C 15.796875 5.257812 16.304688 5.378906 16.75 5.550781 C 17.21875 5.722656 17.640625 6 17.988281 6.355469 C 18.347656 6.703125 18.621094 7.128906 18.796875 7.59375 C 18.96875 8.039062 19.089844 8.546875 19.125 9.289062 C 19.152344 10.035156 19.160156 10.273438 19.160156 12.171875 C 19.160156 14.074219 19.152344 14.3125 19.125 15.054688 Z M 19.125 15.054688 "/>
</g>
</svg>
