<?xml version="1.0" encoding="UTF-8"?>
<svg xmlns="http://www.w3.org/2000/svg" xmlns:xlink="http://www.w3.org/1999/xlink" width="25pt" height="25pt" viewBox="0 0 25 25" version="1.1">
<g id="surface1">
<path style=" stroke:none;fill-rule:nonzero;fill:rgb(100%,100%,100%);fill-opacity:1;" d="M 12.171875 0 C 5.453125 0 0 5.453125 0 12.171875 C 0 18.894531 5.453125 24.347656 12.171875 24.347656 C 18.894531 24.347656 24.347656 18.894531 24.347656 12.171875 C 24.347656 5.453125 18.894531 0 12.171875 0 Z M 8.636719 18.402344 L 5.667969 18.402344 L 5.667969 9.484375 L 8.636719 9.484375 Z M 7.152344 8.265625 L 7.132812 8.265625 C 6.140625 8.265625 5.496094 7.582031 5.496094 6.722656 C 5.496094 5.851562 6.15625 5.179688 7.171875 5.179688 C 8.1875 5.179688 8.8125 5.851562 8.832031 6.722656 C 8.832031 7.582031 8.1875 8.265625 7.152344 8.265625 Z M 19.324219 18.402344 L 16.359375 18.402344 L 16.359375 13.628906 C 16.359375 12.433594 15.933594 11.617188 14.855469 11.617188 C 14.042969 11.617188 13.554688 12.167969 13.339844 12.699219 C 13.261719 12.886719 13.242188 13.15625 13.242188 13.421875 L 13.242188 18.402344 L 10.277344 18.402344 C 10.277344 18.402344 10.316406 10.316406 10.277344 9.484375 L 13.242188 9.484375 L 13.242188 10.746094 C 13.632812 10.136719 14.335938 9.273438 15.914062 9.273438 C 17.863281 9.273438 19.324219 10.546875 19.324219 13.289062 Z M 19.324219 18.402344 "/>
</g>
</svg>
