<?xml version="1.0" encoding="UTF-8"?>
<svg xmlns="http://www.w3.org/2000/svg" xmlns:xlink="http://www.w3.org/1999/xlink" width="25pt" height="25pt" viewBox="0 0 25 25" version="1.1">
<g id="surface1">
<path style=" stroke:none;fill-rule:nonzero;fill:rgb(21.960784%,23.921569%,27.058824%);fill-opacity:1;" d="M 24.996094 25 L 25 25 L 25 15.828125 C 25 11.34375 24.03125 7.890625 18.789062 7.890625 C 16.269531 7.890625 14.578125 9.273438 13.886719 10.585938 L 13.8125 10.585938 L 13.8125 8.3125 L 8.84375 8.3125 L 8.84375 25 L 14.019531 25 L 14.019531 16.734375 C 14.019531 14.5625 14.433594 12.457031 17.128906 12.457031 C 19.78125 12.457031 19.824219 14.9375 19.824219 16.875 L 19.824219 25 Z M 24.996094 25 "/>
<path style=" stroke:none;fill-rule:nonzero;fill:rgb(21.960784%,23.921569%,27.058824%);fill-opacity:1;" d="M 0.410156 8.3125 L 5.59375 8.3125 L 5.59375 25 L 0.410156 25 Z M 0.410156 8.3125 "/>
<path style=" stroke:none;fill-rule:nonzero;fill:rgb(21.960784%,23.921569%,27.058824%);fill-opacity:1;" d="M 3.003906 0 C 1.34375 0 0 1.34375 0 3.003906 C 0 4.65625 1.34375 6.03125 3.003906 6.03125 C 4.65625 6.03125 6.007812 4.65625 6.007812 3.003906 C 6 1.34375 4.65625 0 3.003906 0 Z M 3.003906 0 "/>
</g>
</svg>
