<?xml version="1.0" encoding="UTF-8"?>
<svg xmlns="http://www.w3.org/2000/svg" xmlns:xlink="http://www.w3.org/1999/xlink" width="25pt" height="25pt" viewBox="0 0 25 25" version="1.1">
<g id="surface1">
<path style=" stroke:none;fill-rule:nonzero;fill:rgb(21.960784%,23.921569%,27.058824%);fill-opacity:1;" d="M 25 4.746094 C 24.070312 5.15625 23.082031 5.425781 22.046875 5.554688 C 23.109375 4.921875 23.921875 3.925781 24.300781 2.726562 C 23.3125 3.316406 22.21875 3.730469 21.050781 3.964844 C 20.113281 2.964844 18.769531 2.34375 17.308594 2.34375 C 14.472656 2.34375 12.1875 4.648438 12.1875 7.46875 C 12.1875 7.875 12.222656 8.265625 12.304688 8.636719 C 8.042969 8.433594 4.273438 6.386719 1.738281 3.277344 C 1.296875 4.042969 1.039062 4.921875 1.039062 5.867188 C 1.039062 7.640625 1.953125 9.21875 3.316406 10.125 C 2.492188 10.113281 1.683594 9.875 1 9.496094 C 1 9.511719 1 9.53125 1 9.550781 C 1 12.046875 2.777344 14.109375 5.109375 14.589844 C 4.6875 14.703125 4.234375 14.757812 3.765625 14.757812 C 3.433594 14.757812 3.105469 14.742188 2.792969 14.667969 C 3.457031 16.699219 5.34375 18.195312 7.582031 18.242188 C 5.839844 19.605469 3.625 20.425781 1.226562 20.425781 C 0.804688 20.425781 0.40625 20.410156 0 20.355469 C 2.269531 21.820312 4.960938 22.65625 7.859375 22.65625 C 17.296875 22.65625 22.453125 14.84375 22.453125 8.070312 C 22.453125 7.847656 22.441406 7.625 22.429688 7.40625 C 23.445312 6.6875 24.300781 5.785156 25 4.746094 Z M 25 4.746094 "/>
</g>
</svg>
