<?xml version="1.0" encoding="UTF-8"?>
<svg xmlns="http://www.w3.org/2000/svg" xmlns:xlink="http://www.w3.org/1999/xlink" width="25pt" height="25pt" viewBox="0 0 25 25" version="1.1">
<g id="surface1">
<path style=" stroke:none;fill-rule:nonzero;fill:rgb(100%,100%,100%);fill-opacity:1;" d="M 12.171875 0 C 5.453125 0 0 5.453125 0 12.171875 C 0 18.894531 5.453125 24.347656 12.171875 24.347656 C 18.894531 24.347656 24.347656 18.894531 24.347656 12.171875 C 24.347656 5.453125 18.894531 0 12.171875 0 Z M 17.730469 9.492188 C 17.734375 9.613281 17.738281 9.734375 17.738281 9.851562 C 17.738281 13.546875 14.929688 17.804688 9.789062 17.804688 C 8.210938 17.804688 6.742188 17.339844 5.507812 16.546875 C 5.722656 16.574219 5.945312 16.585938 6.171875 16.585938 C 7.480469 16.585938 8.6875 16.140625 9.644531 15.390625 C 8.417969 15.367188 7.386719 14.5625 7.035156 13.445312 C 7.203125 13.480469 7.378906 13.5 7.558594 13.5 C 7.816406 13.5 8.0625 13.464844 8.296875 13.398438 C 7.015625 13.144531 6.054688 12.015625 6.054688 10.660156 C 6.054688 10.648438 6.054688 10.640625 6.054688 10.625 C 6.429688 10.835938 6.863281 10.960938 7.320312 10.972656 C 6.570312 10.476562 6.078125 9.621094 6.078125 8.652344 C 6.078125 8.136719 6.210938 7.660156 6.453125 7.246094 C 7.832031 8.9375 9.890625 10.046875 12.214844 10.167969 C 12.167969 9.960938 12.144531 9.75 12.144531 9.527344 C 12.144531 7.984375 13.390625 6.734375 14.933594 6.734375 C 15.742188 6.734375 16.464844 7.074219 16.976562 7.617188 C 17.613281 7.492188 18.207031 7.261719 18.746094 6.9375 C 18.539062 7.589844 18.097656 8.136719 17.519531 8.484375 C 18.085938 8.417969 18.625 8.269531 19.125 8.046875 C 18.75 8.601562 18.273438 9.097656 17.730469 9.492188 Z M 17.730469 9.492188 "/>
</g>
</svg>
