<?xml version="1.0" encoding="UTF-8"?>
<svg xmlns="http://www.w3.org/2000/svg" xmlns:xlink="http://www.w3.org/1999/xlink" width="30pt" height="30pt" viewBox="0 0 30 30" version="1.1">
<g id="surface1">
<path style=" stroke:none;fill-rule:nonzero;fill:rgb(0%,0%,0%);fill-opacity:1;" d="M 30 15 C 30 6.714844 23.285156 0 15 0 C 6.714844 0 0 6.714844 0 15 C 0 23.285156 6.714844 30 15 30 C 15.085938 30 15.175781 30 15.265625 29.992188 L 15.265625 18.320312 L 12.039062 18.320312 L 12.039062 14.566406 L 15.265625 14.566406 L 15.265625 11.800781 C 15.265625 8.59375 17.21875 6.847656 20.078125 6.847656 C 21.449219 6.847656 22.628906 6.949219 22.96875 6.996094 L 22.96875 10.347656 L 21 10.347656 C 19.445312 10.347656 19.140625 11.085938 19.140625 12.167969 L 19.140625 14.558594 L 22.863281 14.558594 L 22.375 18.316406 L 19.140625 18.316406 L 19.140625 29.417969 C 25.414062 27.621094 30 21.847656 30 15 Z M 30 15 "/>
</g>
</svg>
