<?xml version="1.0" encoding="UTF-8"?>
<svg xmlns="http://www.w3.org/2000/svg" xmlns:xlink="http://www.w3.org/1999/xlink" width="30pt" height="30pt" viewBox="0 0 30 30" version="1.1">
<g id="surface1">
<path style=" stroke:none;fill-rule:nonzero;fill:rgb(0%,0%,0%);fill-opacity:1;" d="M 17.871094 15 C 17.871094 16.585938 16.585938 17.871094 15 17.871094 C 13.414062 17.871094 12.128906 16.585938 12.128906 15 C 12.128906 13.414062 13.414062 12.128906 15 12.128906 C 16.585938 12.128906 17.871094 13.414062 17.871094 15 Z M 17.871094 15 "/>
<path style=" stroke:none;fill-rule:nonzero;fill:rgb(0%,0%,0%);fill-opacity:1;" d="M 21.714844 9.921875 C 21.578125 9.546875 21.355469 9.207031 21.070312 8.929688 C 20.792969 8.644531 20.453125 8.421875 20.078125 8.285156 C 19.777344 8.167969 19.320312 8.027344 18.480469 7.988281 C 17.570312 7.949219 17.300781 7.9375 15 7.9375 C 12.699219 7.9375 12.425781 7.949219 11.519531 7.988281 C 10.679688 8.027344 10.222656 8.167969 9.921875 8.285156 C 9.546875 8.421875 9.207031 8.644531 8.929688 8.929688 C 8.644531 9.207031 8.421875 9.546875 8.285156 9.921875 C 8.167969 10.222656 8.027344 10.679688 7.988281 11.519531 C 7.949219 12.429688 7.9375 12.699219 7.9375 15 C 7.9375 17.300781 7.949219 17.574219 7.988281 18.480469 C 8.027344 19.320312 8.167969 19.777344 8.285156 20.078125 C 8.421875 20.453125 8.644531 20.792969 8.929688 21.070312 C 9.207031 21.355469 9.546875 21.578125 9.921875 21.714844 C 10.222656 21.832031 10.679688 21.972656 11.519531 22.011719 C 12.425781 22.054688 12.699219 22.0625 15 22.0625 C 17.300781 22.0625 17.574219 22.054688 18.480469 22.011719 C 19.320312 21.972656 19.777344 21.832031 20.078125 21.714844 C 20.832031 21.425781 21.425781 20.832031 21.714844 20.078125 C 21.832031 19.777344 21.972656 19.320312 22.011719 18.480469 C 22.050781 17.574219 22.0625 17.300781 22.0625 15 C 22.0625 12.699219 22.050781 12.429688 22.011719 11.519531 C 21.972656 10.679688 21.832031 10.222656 21.714844 9.921875 Z M 15 19.421875 C 12.558594 19.421875 10.578125 17.441406 10.578125 15 C 10.578125 12.558594 12.558594 10.578125 15 10.578125 C 17.441406 10.578125 19.421875 12.558594 19.421875 15 C 19.421875 17.441406 17.441406 19.421875 15 19.421875 Z M 19.597656 11.4375 C 19.027344 11.4375 18.5625 10.972656 18.5625 10.402344 C 18.5625 9.832031 19.027344 9.367188 19.597656 9.367188 C 20.167969 9.367188 20.632812 9.832031 20.632812 10.402344 C 20.632812 10.972656 20.167969 11.4375 19.597656 11.4375 Z M 19.597656 11.4375 "/>
<path style=" stroke:none;fill-rule:nonzero;fill:rgb(0%,0%,0%);fill-opacity:1;" d="M 15 0 C 6.71875 0 0 6.71875 0 15 C 0 23.28125 6.71875 30 15 30 C 23.28125 30 30 23.28125 30 15 C 30 6.71875 23.28125 0 15 0 Z M 23.5625 18.550781 C 23.519531 19.46875 23.375 20.09375 23.160156 20.640625 C 22.714844 21.800781 21.800781 22.714844 20.640625 23.160156 C 20.09375 23.375 19.46875 23.519531 18.550781 23.5625 C 17.632812 23.601562 17.339844 23.613281 15 23.613281 C 12.660156 23.613281 12.367188 23.601562 11.449219 23.5625 C 10.53125 23.519531 9.90625 23.375 9.359375 23.160156 C 8.785156 22.945312 8.261719 22.605469 7.832031 22.167969 C 7.394531 21.738281 7.054688 21.214844 6.839844 20.640625 C 6.625 20.09375 6.480469 19.46875 6.4375 18.550781 C 6.398438 17.632812 6.386719 17.339844 6.386719 15 C 6.386719 12.660156 6.398438 12.367188 6.4375 11.449219 C 6.480469 10.53125 6.625 9.90625 6.839844 9.359375 C 7.054688 8.785156 7.394531 8.261719 7.832031 7.832031 C 8.261719 7.394531 8.785156 7.054688 9.359375 6.839844 C 9.90625 6.625 10.53125 6.480469 11.449219 6.4375 C 12.367188 6.398438 12.660156 6.386719 15 6.386719 C 17.339844 6.386719 17.632812 6.398438 18.550781 6.4375 C 19.46875 6.480469 20.09375 6.625 20.640625 6.839844 C 21.214844 7.054688 21.738281 7.394531 22.167969 7.832031 C 22.605469 8.261719 22.945312 8.785156 23.160156 9.359375 C 23.375 9.90625 23.519531 10.53125 23.5625 11.449219 C 23.601562 12.367188 23.613281 12.660156 23.613281 15 C 23.613281 17.339844 23.601562 17.632812 23.5625 18.550781 Z M 23.5625 18.550781 "/>
</g>
</svg>
