<?xml version="1.0" encoding="UTF-8"?>
<svg xmlns="http://www.w3.org/2000/svg" xmlns:xlink="http://www.w3.org/1999/xlink" width="30pt" height="30pt" viewBox="0 0 30 30" version="1.1">
<g id="surface1">
<path style=" stroke:none;fill-rule:nonzero;fill:rgb(0%,0%,0%);fill-opacity:1;" d="M 15 0 C 6.71875 0 0 6.71875 0 15 C 0 23.28125 6.71875 30 15 30 C 23.28125 30 30 23.28125 30 15 C 30 6.71875 23.28125 0 15 0 Z M 10.640625 22.675781 L 6.988281 22.675781 L 6.988281 11.683594 L 10.640625 11.683594 Z M 8.816406 10.183594 L 8.789062 10.183594 C 7.566406 10.183594 6.773438 9.339844 6.773438 8.285156 C 6.773438 7.207031 7.589844 6.386719 8.839844 6.386719 C 10.089844 6.386719 10.859375 7.207031 10.882812 8.285156 C 10.882812 9.339844 10.089844 10.183594 8.816406 10.183594 Z M 23.8125 22.675781 L 20.160156 22.675781 L 20.160156 16.796875 C 20.160156 15.320312 19.632812 14.3125 18.308594 14.3125 C 17.300781 14.3125 16.699219 14.992188 16.4375 15.648438 C 16.339844 15.882812 16.316406 16.210938 16.316406 16.539062 L 16.316406 22.675781 L 12.664062 22.675781 C 12.664062 22.675781 12.710938 12.714844 12.664062 11.683594 L 16.316406 11.683594 L 16.316406 13.242188 C 16.800781 12.492188 17.667969 11.425781 19.609375 11.425781 C 22.011719 11.425781 23.8125 12.996094 23.8125 16.375 Z M 23.8125 22.675781 "/>
</g>
</svg>
