<?xml version="1.0" encoding="UTF-8"?>
<svg xmlns="http://www.w3.org/2000/svg" xmlns:xlink="http://www.w3.org/1999/xlink" width="30pt" height="30pt" viewBox="0 0 30 30" version="1.1">
<g id="surface1">
<path style=" stroke:none;fill-rule:nonzero;fill:rgb(0%,0%,0%);fill-opacity:1;" d="M 15 0 C 6.71875 0 0 6.71875 0 15 C 0 23.28125 6.71875 30 15 30 C 23.28125 30 30 23.28125 30 15 C 30 6.71875 23.28125 0 15 0 Z M 21.847656 11.695312 C 21.855469 11.84375 21.859375 11.992188 21.859375 12.140625 C 21.859375 16.691406 18.394531 21.9375 12.0625 21.9375 C 10.117188 21.9375 8.308594 21.367188 6.785156 20.390625 C 7.054688 20.421875 7.328125 20.4375 7.605469 20.4375 C 9.21875 20.4375 10.703125 19.886719 11.882812 18.964844 C 10.375 18.9375 9.105469 17.941406 8.667969 16.570312 C 8.875 16.613281 9.09375 16.632812 9.3125 16.632812 C 9.628906 16.632812 9.933594 16.59375 10.222656 16.511719 C 8.644531 16.199219 7.460938 14.804688 7.460938 13.136719 C 7.460938 13.121094 7.460938 13.109375 7.460938 13.09375 C 7.921875 13.351562 8.453125 13.507812 9.019531 13.523438 C 8.09375 12.90625 7.488281 11.855469 7.488281 10.660156 C 7.488281 10.027344 7.65625 9.4375 7.953125 8.929688 C 9.652344 11.011719 12.1875 12.382812 15.050781 12.527344 C 14.992188 12.273438 14.960938 12.011719 14.960938 11.742188 C 14.960938 9.839844 16.503906 8.296875 18.402344 8.296875 C 19.394531 8.296875 20.289062 8.714844 20.917969 9.386719 C 21.703125 9.230469 22.4375 8.945312 23.101562 8.550781 C 22.84375 9.355469 22.300781 10.027344 21.589844 10.453125 C 22.285156 10.371094 22.949219 10.1875 23.566406 9.914062 C 23.105469 10.601562 22.519531 11.210938 21.847656 11.695312 Z M 21.847656 11.695312 "/>
</g>
</svg>
